<?xml version="1.0" standalone="no"?>
<!DOCTYPE svg PUBLIC "-//W3C//DTD SVG 20010904//EN"
 "http://www.w3.org/TR/2001/REC-SVG-20010904/DTD/svg10.dtd">
<svg version="1.0" xmlns="http://www.w3.org/2000/svg"
 width="500.000000pt" height="500.000000pt" viewBox="0 0 500.000000 500.000000"
 preserveAspectRatio="xMidYMid meet">

<g transform="translate(0.000000,500.000000) scale(0.100000,-0.100000)"
fill="#000000" stroke="none">
<path d="M1290 3620 c0 -5 5 -10 11 -10 5 0 7 5 4 10 -3 6 -8 10 -11 10 -2 0
-4 -4 -4 -10z"/>
<path d="M1325 3621 c4 -7 16 -11 26 -8 10 3 22 1 25 -5 3 -5 18 -8 32 -7 15
2 32 1 37 -3 6 -3 35 -11 65 -18 105 -25 327 -130 315 -149 -2 -5 1 -8 9 -7
24 2 137 -94 152 -129 10 -24 19 -33 29 -29 10 4 15 0 15 -16 0 -11 4 -19 9
-16 4 3 22 -12 40 -34 30 -38 40 -70 21 -70 -5 0 -7 7 -3 15 3 9 1 15 -3 13
-15 -5 -86 80 -78 93 4 7 3 9 -4 5 -13 -8 -124 98 -114 109 4 5 2 5 -5 1 -14
-8 -119 61 -115 76 1 5 -2 6 -8 3 -7 -4 -23 4 -37 16 -15 13 -23 18 -19 11 6
-9 -3 -8 -25 4 -19 10 -38 17 -43 16 -5 -2 -6 5 -2 14 5 13 3 14 -6 6 -9 -7
-26 -4 -58 9 -25 10 -40 18 -34 18 6 1 28 -6 49 -15 20 -8 34 -11 31 -5 -10
16 -71 32 -100 27 -18 -3 -29 0 -33 10 -5 13 -7 13 -14 2 -7 -10 -9 -10 -9 2
0 13 -1 13 -10 0 -9 -13 -10 -13 -10 0 0 9 -10 16 -25 18 -14 1 -25 -2 -25 -6
0 -4 -12 -7 -27 -6 -16 1 -43 3 -61 3 -18 1 -31 4 -28 9 2 4 -19 7 -47 6 -101
-2 -109 -3 -101 -16 5 -8 0 -7 -11 2 -17 13 -18 13 -13 -1 3 -9 1 -16 -5 -16
-7 -1 -52 -13 -100 -27 -402 -119 -697 -482 -723 -885 -2 -48 -8 -111 -11
-141 l-6 -55 -8 40 c-10 52 -11 198 -1 192 4 -3 7 17 6 44 -1 26 3 46 8 43 5
-3 6 6 2 20 -3 13 -2 31 2 38 5 7 9 20 11 28 7 47 27 99 36 93 6 -3 7 -1 3 5
-9 14 52 145 63 137 5 -2 8 3 7 13 0 9 5 16 12 14 8 -1 11 2 7 8 -12 20 99
155 118 143 6 -3 7 -2 4 4 -8 13 37 56 48 46 4 -5 5 -3 2 4 -9 14 62 75 76 66
6 -3 7 -1 3 5 -8 13 28 35 39 24 5 -4 4 -1 0 7 -6 11 -4 13 8 8 9 -3 19 -1 23
5 4 7 3 8 -4 4 -7 -4 -12 -5 -12 -2 0 3 22 17 49 33 27 15 48 30 45 34 -2 4 1
11 7 15 8 4 9 3 5 -4 -10 -17 6 -15 32 4 23 16 29 34 12 34 -5 0 -10 -7 -10
-15 0 -8 -4 -15 -10 -15 -5 0 -10 5 -10 11 0 13 -66 -24 -166 -93 -65 -44
-221 -190 -214 -199 2 -2 -15 -24 -38 -48 -23 -24 -39 -48 -36 -53 3 -4 1 -8
-4 -8 -13 0 -87 -155 -111 -233 -70 -227 -64 -441 19 -668 128 -351 437 -613
790 -669 94 -14 306 -12 392 4 316 61 589 267 732 553 103 205 133 451 85 686
-27 133 -112 337 -140 337 -6 0 -7 4 -4 10 3 5 -3 15 -15 22 -11 7 -20 18 -20
24 0 7 -13 26 -29 43 -16 17 -27 31 -24 31 3 0 0 7 -7 15 -7 8 -17 12 -23 8
-6 -4 -7 -1 -3 6 5 8 1 14 -12 18 -11 2 -23 14 -25 25 -4 13 -10 17 -19 12 -7
-4 -10 -4 -6 1 11 12 -11 35 -28 28 -8 -3 -14 1 -14 11 0 16 -95 86 -117 86
-6 0 -13 4 -15 9 -5 15 -149 83 -164 77 -8 -3 -14 -1 -14 5 0 6 -7 8 -16 5 -8
-3 -13 -2 -9 3 6 10 -92 34 -105 26 -5 -3 -10 -1 -12 5 -1 5 -36 13 -77 16
-58 6 -72 4 -66 -5z m-105 -51 c12 -8 11 -10 -7 -10 -12 0 -25 5 -28 10 -8 13
15 13 35 0z m43 -47 c-17 -3 -23 -12 -24 -31 l-2 -27 -4 28 c-3 19 -10 27 -24
27 -10 0 -19 -4 -19 -10 0 -5 7 -7 15 -4 8 4 15 1 15 -5 0 -6 -9 -11 -20 -11
-11 0 -19 -5 -17 -12 1 -6 -14 -15 -33 -19 -47 -10 -51 -3 -7 16 28 11 34 19
30 35 -5 18 -1 20 53 19 33 -1 49 -4 37 -6z m60 0 c-14 -3 -23 -13 -26 -31 -4
-24 -4 -24 -6 6 -1 29 2 32 27 31 22 -1 23 -2 5 -6z m60 0 c-13 -2 -23 -9 -23
-14 0 -12 43 -12 56 1 7 7 9 1 6 -21 -4 -26 -6 -29 -14 -15 -10 17 -48 23 -48
7 0 -5 10 -12 23 -14 19 -4 19 -4 2 -5 -32 -2 -44 11 -38 41 4 22 10 27 32 26
23 -2 24 -2 4 -6z m-263 -16 c-13 -7 -28 -23 -32 -37 -7 -24 -8 -24 -4 3 4 31
4 31 -46 17 -29 -8 -35 -14 -31 -30 4 -15 9 -17 23 -10 12 7 21 7 25 0 6 -10
-42 -26 -51 -17 -3 2 -6 17 -7 33 -2 25 2 29 43 40 25 7 59 12 75 13 l30 1
-25 -13z m332 -27 c-2 -16 -7 -30 -11 -30 -4 0 -6 14 -3 30 2 17 7 30 11 30 4
0 6 -13 3 -30z m-312 10 c0 -5 -9 -10 -21 -10 -11 0 -17 5 -14 10 3 6 13 10
21 10 8 0 14 -4 14 -10z m451 -10 c5 0 9 -5 9 -10 0 -7 -6 -7 -20 0 -25 13
-26 2 -2 -17 16 -13 15 -14 -5 -10 -13 3 -23 1 -23 -4 0 -5 -4 -9 -9 -9 -6 0
-6 12 1 31 7 20 15 28 25 25 8 -3 19 -6 24 -6z m55 -25 c18 -14 18 -15 0 -8
-13 4 -24 -1 -37 -18 l-19 -24 11 33 c12 36 17 38 45 17z m-721 -5 c-8 -12 -3
-13 29 0 21 8 26 6 26 -6 0 -8 -4 -13 -8 -10 -4 2 -14 0 -22 -6 -12 -8 -12 -9
3 -4 10 3 17 0 18 -7 0 -9 2 -9 5 0 4 8 13 9 34 1 24 -8 33 -7 46 7 11 10 30
15 53 14 20 -2 42 0 49 4 19 13 86 16 100 5 8 -7 16 -7 25 -1 13 11 87 5 87
-6 0 -4 25 -7 56 -7 43 0 58 -4 66 -17 6 -12 16 -16 29 -12 25 8 75 -11 83
-32 4 -8 13 -12 23 -9 22 7 87 -30 78 -44 -4 -6 5 -10 20 -10 38 0 89 -38 75
-55 -10 -12 -17 -11 -45 3 -19 9 -35 23 -35 30 0 11 -4 13 -25 12 -14 -1 -72
35 -84 52 -9 13 -17 16 -23 10 -11 -11 -68 4 -80 22 -4 5 -24 9 -46 8 -25 -2
-46 3 -55 13 -12 11 -27 14 -57 9 -27 -4 -50 -2 -66 7 -17 9 -28 10 -32 3 -10
-16 -67 -25 -79 -13 -8 8 -18 6 -35 -5 -14 -9 -42 -15 -66 -14 -30 1 -46 -4
-55 -16 -7 -10 -30 -19 -52 -21 -22 -2 -41 -9 -43 -15 -5 -13 -55 -40 -75 -40
-8 0 -29 -13 -47 -30 -18 -16 -41 -30 -51 -30 -11 0 -22 -8 -26 -17 -8 -25
-54 -73 -63 -68 -8 5 -36 -24 -34 -34 3 -14 -37 -53 -49 -48 -7 3 -13 -3 -14
-13 -2 -27 32 -14 62 24 31 38 33 40 73 72 17 14 32 35 32 46 0 13 5 18 14 15
16 -7 81 35 90 58 3 9 10 14 15 10 11 -6 81 25 81 37 0 4 9 8 20 8 11 0 39 9
63 19 52 24 233 44 319 35 214 -22 429 -131 553 -281 21 -26 32 -42 22 -34
-10 8 -17 9 -17 3 0 -11 19 -27 34 -27 5 0 16 -11 25 -25 11 -17 12 -22 2 -16
-9 6 -12 5 -9 -5 3 -8 10 -14 16 -14 5 0 13 -3 16 -8 3 -4 3 -5 0 -2 -4 2 -19
-2 -35 -10 -16 -9 -30 -11 -34 -6 -3 5 4 12 15 16 16 5 18 10 9 26 -8 16 -13
18 -25 9 -7 -7 -11 -16 -8 -21 15 -24 -7 -4 -31 29 -16 20 -22 32 -15 25 7 -6
20 -9 29 -6 12 4 13 3 2 -5 -17 -12 0 -23 19 -12 12 8 10 14 -13 37 -23 23
-29 26 -37 13 -8 -12 -11 -13 -22 -2 -11 11 -10 13 1 10 7 -2 16 3 18 10 6 14
-13 16 -22 2 -4 -6 -12 -7 -18 -4 -8 5 -8 3 1 -7 6 -7 12 -17 12 -21 0 -16
-24 -7 -71 27 -27 19 -52 35 -56 35 -4 0 26 -35 67 -77 41 -43 56 -60 33 -38
-24 21 -43 34 -43 29 0 -6 9 -19 21 -30 12 -10 30 -32 41 -47 12 -16 -17 10
-64 57 -47 47 -90 86 -97 86 -7 0 20 -32 61 -71 l73 -71 -68 61 c-37 33 -73
61 -79 61 -7 0 14 -23 45 -51 31 -27 66 -64 78 -82 12 -18 -4 -4 -35 31 -32
34 -63 62 -69 62 -6 0 11 -24 38 -52 36 -38 39 -42 10 -15 -59 54 -65 46 -10
-15 25 -28 51 -61 56 -72 6 -12 0 -7 -12 9 -32 43 -119 125 -133 125 -6 0 12
-21 39 -46 l50 -46 -45 34 c-150 116 -296 161 -452 139 -109 -15 -152 -31
-156 -59 -2 -12 -8 -20 -13 -16 -5 3 -26 -4 -46 -16 -19 -11 -38 -19 -40 -16
-3 2 12 14 34 25 21 11 31 20 23 20 -8 0 -26 -8 -40 -19 -27 -21 -45 -26 -35
-10 4 6 25 20 47 31 30 15 43 18 48 9 5 -8 9 -5 12 7 4 14 24 25 68 37 143 40
289 28 419 -36 83 -41 91 -43 66 -23 -54 46 -220 95 -320 95 -70 0 -193 -28
-260 -60 -33 -16 -62 -27 -64 -25 -7 7 121 63 179 79 45 12 49 15 25 16 -67 4
20 18 115 19 104 1 182 -15 269 -55 30 -13 56 -22 59 -19 8 8 -106 55 -172 70
-132 31 -315 12 -428 -46 -22 -11 -42 -18 -46 -15 -8 8 102 55 172 73 75 20
223 21 296 4 30 -8 79 -25 109 -38 30 -13 56 -21 59 -18 3 3 -15 14 -40 25
-168 74 -378 72 -547 -6 -30 -13 -56 -22 -59 -19 -3 2 20 16 50 29 195 87 391
85 573 -4 44 -21 81 -37 83 -35 8 8 -88 56 -163 81 -71 25 -95 28 -205 28
-114 0 -133 -3 -210 -30 -47 -17 -94 -34 -105 -37 -11 -4 7 6 41 23 159 79
383 79 552 0 36 -17 67 -28 70 -25 9 8 -110 56 -193 77 -146 37 -360 10 -483
-63 -39 -22 -55 -25 -28 -4 27 20 6 19 -22 -1 -13 -9 -26 -14 -28 -11 -7 7 90
61 155 86 29 12 87 28 130 35 42 8 62 15 45 15 -56 2 -186 -39 -273 -85 -47
-25 -75 -36 -61 -25 45 36 163 89 241 107 49 11 75 22 73 29 -3 7 2 18 11 25
13 11 15 9 15 -9 0 -13 6 -21 18 -21 15 0 15 2 2 11 -11 8 -12 12 -2 16 23 9
12 23 -18 23 -16 0 -30 -4 -30 -8 0 -5 -15 -7 -32 -5 -23 3 -29 1 -19 -5 9 -7
1 -9 -28 -8 -29 0 -45 -5 -56 -19 -9 -11 -14 -14 -10 -7 5 10 0 11 -22 7 -21
-5 -24 -4 -13 4 21 15 8 14 -34 -4 -41 -17 -50 -30 -10 -15 32 13 30 13 48 -5
12 -12 20 -13 40 -4 14 7 23 16 20 20 -3 5 0 9 5 9 6 0 11 -6 11 -14 0 -14
-87 -52 -97 -42 -4 3 0 6 7 6 7 0 10 3 7 7 -4 3 -18 -6 -32 -21 -14 -15 -29
-25 -34 -22 -5 4 -11 3 -13 -1 -7 -17 -92 -65 -96 -55 -2 6 -9 9 -17 6 -7 -3
-16 -1 -19 5 -4 5 21 26 54 47 33 20 60 39 60 41 0 10 -87 -46 -145 -94 -166
-137 -266 -327 -283 -538 -4 -57 -8 -71 -12 -50 -3 17 -3 47 1 67 6 38 -5 76
-15 48 -3 -8 -6 -26 -8 -40 -2 -17 -8 -24 -20 -22 -10 2 -18 0 -18 -3 0 -11
28 -35 41 -35 10 0 10 -3 1 -12 -7 -7 -12 -26 -12 -44 0 -30 -2 -32 -37 -32
-20 0 -46 4 -57 9 -20 9 -20 9 -1 8 38 -2 55 1 55 10 0 6 -16 7 -35 4 -23 -4
-35 -2 -35 6 0 6 12 12 28 12 23 2 24 2 5 6 -29 6 -29 20 0 26 18 4 17 5 -7 6
-22 1 -27 4 -21 19 3 9 9 55 11 101 12 189 128 408 299 562 69 63 111 90 127
84 8 -3 27 1 43 9 22 12 32 12 43 4 12 -10 11 -14 -4 -25 -9 -7 -21 -10 -26
-7 -19 12 -58 -6 -58 -27 0 -11 -4 -17 -10 -14 -5 3 -10 2 -10 -4 0 -21 19
-20 26 1 8 26 22 38 44 38 10 0 7 -7 -10 -21 -22 -18 -20 -18 19 3 45 24 64
49 43 56 -7 2 -10 7 -7 12 7 12 -36 6 -63 -9 -39 -21 -36 -5 3 19 19 12 42 19
51 16 10 -4 13 -2 8 6 -5 8 -2 9 9 5 10 -4 17 -1 17 5 0 6 3 8 6 5 4 -3 16 0
28 8 24 18 29 19 21 5z m781 -26 c18 -15 18 -15 -3 -4 -19 9 -24 7 -37 -17 -8
-16 -15 -22 -16 -15 0 7 -5 10 -11 6 -7 -4 -10 -1 -7 7 3 8 11 13 17 11 6 -1
14 5 17 13 8 19 15 19 40 -1z m58 -30 c17 -17 13 -34 -8 -34 -18 0 -39 27 -31
40 9 14 21 13 39 -6z m-47 -30 c-2 -2 -12 -2 -21 2 -13 5 -14 9 -5 21 11 12
14 12 22 -2 5 -9 7 -19 4 -21z m105 -36 c-19 -19 -14 -33 6 -15 26 24 39 21
17 -3 -21 -23 -4 -28 19 -5 8 8 17 11 20 7 3 -5 -6 -20 -19 -32 -14 -13 -25
-18 -25 -12 0 6 -11 17 -25 24 -24 13 -24 15 -9 36 9 13 19 21 22 17 3 -3 0
-11 -6 -17z m-662 -17 c0 -5 -18 -13 -40 -19 -22 -5 -40 -6 -40 -2 0 4 17 12
38 18 20 5 38 10 40 11 1 1 2 -3 2 -8z m728 -46 c-12 -14 -24 -23 -26 -20 -6
6 28 45 39 45 5 0 -1 -11 -13 -25z m98 -62 c-2 -2 -18 -6 -35 -8 -37 -5 -49
10 -27 34 24 27 6 34 -22 9 -24 -23 -25 -23 -13 -1 6 12 16 23 23 26 12 4 82
-53 74 -60z m-112 8 c22 -23 24 -30 13 -39 -10 -9 -20 -7 -43 11 -16 12 -29
29 -30 37 -2 26 32 21 60 -9z m-1072 -56 c7 3 -4 -9 -26 -28 -25 -22 -47 -33
-62 -31 -13 1 -22 -3 -21 -9 1 -6 -4 -11 -12 -12 -8 0 -15 -9 -17 -19 -1 -10
-10 -26 -20 -35 -11 -11 -14 -11 -9 -2 6 10 4 12 -5 6 -10 -6 -9 -11 5 -21 17
-12 17 -15 3 -31 -8 -10 -28 -39 -43 -65 -17 -31 -34 -48 -46 -48 -24 0 -24
-9 -1 -26 14 -11 19 -9 29 9 8 15 12 17 13 7 0 -13 1 -13 10 0 13 20 13 33 -1
24 -7 -4 -7 2 1 17 18 35 23 38 16 9 -6 -23 -6 -23 9 3 30 53 24 22 -8 -43
-18 -36 -38 -78 -44 -95 -12 -28 -12 -28 -8 -3 3 14 7 34 10 45 3 10 0 7 -7
-7 -10 -19 -19 -24 -42 -22 -20 3 -27 0 -23 -10 2 -7 10 -12 16 -10 6 1 11 -5
11 -13 0 -13 -4 -14 -20 -5 -22 12 -23 14 -14 47 4 13 11 20 17 16 7 -4 8 0 4
12 -17 42 107 243 201 325 42 37 48 40 58 25 7 -10 19 -14 26 -10z m1152 -32
c21 -25 23 -33 13 -42 -10 -8 -20 -4 -39 17 -14 15 -28 34 -31 43 -9 27 29 15
57 -18z m-1055 14 c39 0 42 -2 25 -14 -23 -16 -38 -17 -27 0 4 6 -5 4 -20 -5
-33 -23 -43 -23 -26 -1 27 31 -24 -3 -56 -39 -23 -25 -24 -28 -4 -10 33 29 49
28 21 -1 -12 -13 -20 -26 -17 -28 3 -3 -9 -18 -25 -34 -17 -16 -30 -33 -30
-39 0 -6 26 15 58 47 56 56 99 82 52 32 -13 -14 -20 -25 -15 -25 4 0 0 -9 -10
-20 -29 -32 -2 -23 30 10 16 17 34 30 39 30 6 -1 -7 -16 -29 -35 -22 -19 -35
-35 -30 -34 16 0 90 69 74 69 -8 0 -4 8 11 20 14 11 20 20 14 20 -6 0 -17 -7
-24 -15 -7 -8 -18 -15 -24 -15 -6 1 0 10 13 20 13 11 18 20 12 20 -7 0 -9 5
-6 10 3 6 11 10 16 10 6 0 8 -4 5 -9 -13 -21 27 -18 77 4 29 14 69 27 88 30
22 4 10 -4 -34 -20 -85 -33 -142 -66 -128 -74 6 -4 -11 -23 -40 -45 -28 -21
-48 -40 -45 -44 4 -3 19 7 34 22 19 17 35 24 46 20 13 -5 14 -9 5 -20 -17 -21
-34 -17 -18 4 13 16 12 16 -6 3 -11 -8 -33 -26 -48 -40 -25 -23 -27 -24 -22
-6 4 13 -7 6 -31 -20 -20 -22 -34 -31 -30 -21 5 16 4 17 -9 6 -28 -23 -15 6
15 35 17 16 30 34 30 39 -1 12 -80 -75 -80 -87 0 -5 5 -5 10 -2 6 3 10 1 10
-5 0 -6 4 -8 10 -5 6 4 7 -1 3 -11 -4 -11 -8 -13 -11 -6 -4 14 -22 6 -22 -9 0
-6 5 -7 10 -4 15 9 12 0 -11 -40 -12 -19 -18 -42 -15 -51 6 -17 26 -10 26 9 0
7 -4 6 -10 -3 -18 -28 -9 5 11 40 19 32 19 26 2 -17 -4 -11 -3 -14 5 -9 16 10
15 -6 -1 -28 -19 -26 -52 -17 -50 14 1 20 -2 16 -17 -15 -10 -22 -17 -42 -14
-44 2 -3 20 -6 38 -7 44 -4 58 14 60 74 1 26 6 53 10 61 6 10 5 12 -2 7 -19
-12 -14 5 14 41 14 19 28 32 31 29 3 -3 19 4 36 16 17 12 38 23 47 23 9 1 32
13 51 27 50 37 57 40 65 27 4 -7 3 -9 -4 -5 -6 3 -22 -4 -37 -16 l-26 -23 55
3 c39 3 56 8 56 18 0 8 -6 11 -16 7 -12 -4 -15 -2 -12 8 3 8 11 13 17 12 6 -2
11 10 11 27 0 27 4 31 57 46 35 10 94 17 148 17 139 0 248 -38 350 -123 28
-24 60 -46 72 -51 23 -9 80 -85 70 -95 -3 -3 -13 8 -21 25 -9 16 -37 43 -64
58 l-47 28 -355 0 -355 0 -42 -24 c-59 -34 -91 -84 -95 -149 -2 -29 -10 -57
-17 -61 -10 -7 -10 -9 2 -14 9 -3 12 -15 9 -35 -4 -27 -8 -31 -45 -34 -23 -3
-43 -4 -45 -3 -1 1 2 13 7 26 7 17 10 19 10 7 1 -10 8 -18 17 -18 8 0 12 5 9
10 -3 6 -1 10 4 10 6 0 11 -4 11 -10 0 -5 5 -10 10 -10 6 0 10 9 10 20 0 17
-7 20 -38 20 -28 0 -45 7 -62 25 l-24 25 23 56 c13 30 21 57 18 60 -5 5 -32
-59 -52 -122 -12 -39 -11 -42 21 -77 28 -30 41 -37 81 -40 38 -3 33 -4 -22 -5
-67 -1 -71 0 -109 34 l-38 36 17 63 c9 35 32 93 50 130 34 67 39 115 8 78 -19
-23 -6 3 20 41 11 15 20 35 21 45 2 27 35 68 44 54 6 -9 22 0 57 32 32 28 56
42 65 38 8 -4 35 -6 59 -6z m1167 -29 c4 -7 4 -10 -1 -6 -4 4 -17 1 -29 -7
-30 -22 -42 -18 -15 5 28 23 35 24 45 8z m-1181 -8 c-3 -5 -1 -10 5 -10 6 0 8
-4 5 -10 -3 -5 -11 -10 -16 -10 -6 0 -7 5 -4 10 12 20 -12 9 -35 -15 -13 -14
-28 -25 -33 -25 -6 0 -1 10 11 23 12 13 19 27 15 31 -4 4 0 4 9 1 9 -4 19 -2
23 4 3 6 11 11 16 11 6 0 7 -4 4 -10z m1255 -18 c0 -15 -2 -15 -10 -2 -13 20
-13 33 0 25 6 -3 10 -14 10 -23z m-66 -27 c-10 -8 -23 -14 -29 -14 -5 0 -1 7
10 15 11 8 19 21 17 27 -3 9 0 8 9 0 10 -11 9 -16 -7 -28z m-79 -1 c13 -5 45
-53 45 -67 0 -3 -8 -8 -17 -11 -10 -4 -14 -4 -11 0 4 3 -4 16 -16 28 -13 11
-23 29 -23 39 0 19 0 19 22 11z m-1125 -19 c-7 -8 -17 -15 -22 -15 -6 0 -5 7
2 15 7 8 17 15 22 15 6 0 5 -7 -2 -15z m990 -35 c30 -43 18 -37 -16 7 -15 20
-23 33 -16 29 6 -3 21 -20 32 -36z m240 33 c-8 -3 -24 -10 -35 -16 -18 -9 -19
-9 -6 6 7 10 23 17 35 16 14 0 16 -2 6 -6z m-275 -23 c10 -11 16 -20 13 -20
-3 0 -13 9 -23 20 -10 11 -16 20 -13 20 3 0 13 -9 23 -20z m275 -9 c-13 -11
-29 -17 -34 -14 -5 3 2 12 15 19 36 20 48 16 19 -5z m90 -1 c0 -5 -5 -10 -11
-10 -5 0 -7 5 -4 10 3 6 8 10 11 10 2 0 4 -4 4 -10z m-380 -81 c15 -28 5 -23
-15 7 -9 15 -12 23 -6 20 6 -4 16 -16 21 -27z m266 -4 c15 -36 12 -55 -7 -55
-6 0 -7 5 -4 10 3 6 2 10 -3 10 -12 0 -30 42 -25 58 8 22 24 13 39 -23z m54
20 c-33 -19 -50 -18 -26 0 11 8 27 15 35 15 10 -1 7 -6 -9 -15z m15 -32 c-28
-20 -41 -16 -20 7 10 11 22 17 28 13 6 -4 3 -12 -8 -20z m-166 -7 c9 -11 6
-12 -15 -8 -19 3 -22 7 -12 13 16 11 14 11 27 -5z m31 -22 c-8 -8 -23 -20 -34
-25 -13 -7 -9 -1 9 15 34 29 43 33 25 10z m155 -4 c-11 -5 -27 -9 -35 -9 -13
-1 -13 0 0 9 8 5 24 9 35 9 l20 0 -20 -9z m74 -55 c0 -5 -4 -3 -9 5 -5 8 -9
22 -9 30 0 16 17 -16 18 -35z m-72 18 c-8 -9 -20 -12 -26 -9 -19 12 -12 21 15
23 24 1 25 -1 11 -14z m-1047 -50 c31 -43 32 -46 11 -40 l-22 5 3 -123 c3
-112 1 -126 -18 -152 -29 -38 -86 -57 -131 -42 -41 13 -93 80 -93 118 0 32 31
85 62 105 26 17 72 25 76 14 7 -24 0 -48 -15 -48 -27 0 -63 -41 -63 -72 0 -59
69 -89 111 -47 18 18 20 30 17 130 -3 99 -5 110 -20 105 -10 -2 -18 0 -18 6 0
9 58 88 64 88 2 0 18 -21 36 -47z m988 22 c-3 -14 -1 -25 3 -25 5 0 9 -11 9
-25 0 -16 -6 -25 -15 -25 -18 0 -19 11 -2 29 10 11 10 13 0 7 -12 -6 -15 0
-12 20 0 4 -5 10 -11 14 -16 10 -4 30 17 30 11 0 14 -7 11 -25z m80 8 c-11 -3
-18 -14 -18 -28 0 -13 -4 -26 -9 -29 -4 -3 -6 6 -3 19 3 19 0 25 -14 26 -18 0
-18 1 1 9 11 5 29 8 40 8 17 0 17 -1 3 -5z m-431 -35 c-3 -8 -6 -5 -6 6 -1 11
2 17 5 13 3 -3 4 -12 1 -19z m-1198 -68 c0 -9 -4 -8 -9 5 -5 11 -9 27 -9 35 0
9 4 8 9 -5 5 -11 9 -27 9 -35z m1688 3 c-3 -10 -5 -4 -5 12 0 17 2 24 5 18 2
-7 2 -21 0 -30z m-437 -9 c0 -15 -6 -24 -15 -24 -15 0 -21 40 -9 53 12 11 24
-3 24 -29z m249 11 c6 3 11 1 11 -6 0 -8 10 -9 30 -5 19 3 29 2 25 -4 -13 -21
-71 -11 -96 17 -20 23 -20 25 -2 9 12 -10 27 -15 32 -11z m-1559 -22 c0 -18 4
-24 15 -19 8 3 15 1 15 -4 0 -9 -14 -12 -36 -9 -4 0 -11 -5 -15 -13 -7 -10 -9
-9 -9 5 0 9 5 17 11 17 7 0 8 11 4 31 -5 22 -4 29 4 25 6 -4 11 -19 11 -33z
m37 5 c-3 -8 -6 -5 -6 6 -1 11 2 17 5 13 3 -3 4 -12 1 -19z m1464 5 c13 -16
12 -17 -3 -4 -10 7 -18 15 -18 17 0 8 8 3 21 -13z m259 -130 c0 -140 -23 -264
-70 -377 -120 -289 -404 -524 -715 -592 -121 -27 -324 -24 -440 5 -113 29
-257 96 -344 160 -73 54 -180 162 -201 201 -7 14 14 -4 46 -39 126 -138 296
-245 462 -290 383 -105 791 26 1038 333 61 76 145 227 160 289 l6 27 -108 2
-109 2 115 6 115 6 -117 2 c-102 2 -118 0 -127 -15 -6 -10 -10 -13 -11 -8 0
29 19 34 140 38 l125 3 -153 2 c-141 2 -157 0 -185 -19 l-32 -21 30 26 c29 25
35 26 185 29 l155 3 -168 2 c-93 1 -166 6 -163 11 3 5 81 7 173 4 119 -3 164
-1 153 6 -10 7 -11 11 -2 11 6 0 12 5 12 10 0 6 -37 11 -87 12 l-88 2 90 6 90
6 -90 5 -90 5 95 4 95 4 -95 6 -95 6 90 2 c83 2 91 4 92 22 2 19 -5 20 -90 22
l-92 2 95 5 c93 6 94 6 40 13 -30 4 -71 6 -90 4 -19 -2 -27 -1 -17 1 27 7 20
23 -10 23 -38 0 -63 -17 -44 -29 9 -6 10 -10 2 -16 -9 -5 -9 -10 0 -21 7 -8 7
-14 1 -14 -5 0 -15 7 -22 15 -27 32 -68 56 -76 44 -4 -7 -3 -9 4 -5 17 10 23
-10 7 -24 -8 -7 -15 -18 -15 -24 0 -6 9 0 19 13 12 16 21 20 25 12 4 -6 3 -11
-3 -11 -6 0 -17 -13 -26 -30 -13 -24 -21 -30 -48 -29 l-32 1 30 8 30 8 -30 1
c-20 1 -40 -9 -65 -31 l-35 -33 34 38 c21 21 44 37 57 37 13 0 26 5 29 10 7
12 -53 9 -73 -4 -8 -4 -10 -2 -6 7 3 8 20 14 41 15 67 3 47 12 -23 11 -44 -1
-60 -3 -44 -8 24 -7 18 -19 -7 -15 -7 1 -18 2 -24 3 -8 1 -8 6 1 16 9 11 32
15 78 15 68 0 82 9 18 12 -22 1 -32 4 -24 9 19 12 -29 59 -61 59 -21 0 -23 2
-11 10 13 9 13 12 -4 25 -10 7 -15 18 -11 24 8 14 55 14 55 0 0 -5 -4 -7 -10
-4 -6 3 -10 -4 -9 -17 0 -13 16 -36 37 -54 32 -27 41 -30 62 -21 23 9 23 10 5
14 -57 13 -19 17 108 12 78 -3 165 -3 192 1 34 5 -1 8 -106 9 -136 1 -158 3
-170 19 -11 14 -11 15 1 5 10 -10 57 -12 170 -11 l155 2 -145 3 c-79 2 -148 7
-152 11 -4 4 58 6 137 6 80 -1 145 2 145 7 0 5 -60 10 -132 11 l-133 2 135 6
135 6 -125 4 -125 4 123 3 c99 3 122 6 122 18 0 8 5 15 10 15 6 0 10 -46 10
-117z m-1713 75 c-3 -7 -5 -2 -5 12 0 14 2 19 5 13 2 -7 2 -19 0 -25z m719
-50 l49 -82 3 82 3 82 30 0 c19 0 28 -4 23 -11 -3 -6 -6 -64 -5 -130 l2 -119
-24 0 c-30 0 -34 5 -82 98 -21 39 -42 72 -47 72 -4 0 -8 -38 -8 -85 0 -84 0
-85 -25 -85 l-25 0 0 130 0 130 28 0 c24 0 34 -11 78 -82z m202 75 c-24 -4
-28 -9 -28 -37 0 -19 7 -39 17 -47 9 -8 14 -9 10 -3 -4 7 -1 16 6 22 9 8 11
-11 9 -89 -3 -97 -4 -99 -28 -99 l-24 0 0 130 0 130 33 -1 c30 -2 30 -2 5 -6z
m172 -123 l0 -130 -28 0 c-24 0 -33 10 -76 91 -44 82 -46 90 -26 84 15 -5 20
-4 16 4 -4 6 -5 11 -3 11 3 0 18 -21 34 -47 l28 -48 3 83 c3 80 3 82 27 82
l25 0 0 -130z m458 123 c-16 -2 -40 -2 -55 0 -16 2 -3 4 27 4 30 0 43 -2 28
-4z m-1513 -73 c27 -28 34 -30 109 -31 45 -1 72 -4 61 -7 l-20 -5 20 -7 c13
-5 -3 -9 -48 -11 -49 -3 -67 -1 -67 9 0 6 -8 12 -18 12 -10 0 -33 16 -52 35
-19 19 -29 35 -24 35 6 0 23 -13 39 -30z m-60 -30 c3 -5 -1 -10 -10 -10 -9 0
-13 5 -10 10 3 6 8 10 10 10 2 0 7 -4 10 -10z m1295 -20 c0 -5 -7 -10 -15 -10
-8 0 -15 5 -15 10 0 6 7 10 15 10 8 0 15 -4 15 -10z m-1220 -5 c0 -16 -66 -75
-84 -74 -20 0 -20 1 -1 9 11 4 33 22 49 39 29 31 36 36 36 26z m115 -43 c-54
-3 -64 -7 -97 -40 -21 -20 -38 -32 -38 -26 0 6 15 24 33 41 33 33 67 42 127
33 28 -4 22 -6 -25 -8z m-319 -14 c4 -7 4 -10 -1 -6 -4 4 -21 -4 -38 -18 -16
-14 -32 -22 -36 -19 -3 4 3 13 13 21 19 14 19 14 -2 14 -12 0 -22 5 -22 10 0
15 78 12 86 -2z m35 -12 c12 7 11 -3 -1 -26 -7 -13 -7 -21 0 -25 12 -7 4 -25
-11 -25 -5 0 -9 7 -9 16 0 12 -9 14 -47 10 l-48 -6 33 15 c18 9 38 13 44 9 6
-4 9 -1 6 7 -5 15 15 43 20 28 2 -5 8 -7 13 -3z m294 -3 c-40 -3 -57 -11 -82
-36 -40 -37 -44 -25 -6 15 24 25 33 28 82 26 l56 -2 -50 -3z m1458 0 c-24 -2
-62 -2 -85 0 -24 2 -5 4 42 4 47 0 66 -2 43 -4z m-167 -24 c19 -22 19 -22 -3
-8 -13 8 -23 17 -23 21 0 12 6 9 26 -13z m-1471 1 c-3 -5 -16 -10 -28 -9 -20
1 -20 2 3 9 14 4 26 8 28 9 2 1 0 -3 -3 -9z m189 -7 c-28 -3 -49 -12 -64 -29
-13 -13 -28 -24 -34 -24 -6 0 5 13 24 30 27 23 44 29 75 28 l40 -1 -41 -4z
m1006 -162 c-11 -23 -39 -53 -62 -68 l-42 -28 -360 0 c-199 0 -374 4 -390 8
-26 7 -28 6 -16 -8 11 -13 10 -14 -6 -8 -16 6 -17 4 -7 -9 11 -12 9 -18 -6
-32 -11 -10 -26 -15 -33 -11 -7 3 1 -5 17 -20 45 -39 163 -93 256 -116 68 -18
103 -20 198 -16 108 4 134 9 256 51 11 4 8 0 -6 -8 -15 -9 -62 -25 -105 -37
-66 -18 -96 -21 -203 -16 -164 6 -271 41 -388 126 -41 30 -57 59 -30 58 45 -1
48 3 15 32 -30 26 -105 121 -95 121 2 0 25 -27 50 -60 26 -33 52 -60 58 -60 8
0 7 5 -1 15 -11 13 -10 15 6 9 18 -5 18 -5 -1 13 -42 38 -48 56 -10 26 22 -17
58 -36 80 -42 49 -13 643 -15 699 -1 81 18 135 83 138 164 l2 51 3 -47 c3 -33
-2 -58 -17 -87z m130 126 c0 -1 -13 -15 -30 -30 -16 -16 -30 -26 -30 -22 0 3
12 17 26 30 25 23 34 29 34 22z m43 -4 c-7 -2 -19 -2 -25 0 -7 3 -2 5 12 5 14
0 19 -2 13 -5z m-1513 -13 c0 -5 -6 -10 -12 -10 -7 0 -24 -3 -38 -6 -24 -5
-24 -5 -6 10 22 18 56 21 56 6z m210 -5 c-7 -8 -18 -15 -24 -15 -6 0 -2 7 8
15 25 19 32 19 16 0z m96 0 c-26 -19 -42 -19 -26 0 7 8 20 15 29 15 13 -1 13
-3 -3 -15z m1184 2 c0 -2 -13 -16 -30 -32 -16 -16 -30 -26 -30 -22 0 3 12 18
27 32 27 24 33 28 33 22z m307 -4 c-7 -7 -149 -5 -156 3 -2 2 33 4 79 4 46 0
80 -3 77 -7z m-1739 -49 c-2 -19 0 -36 4 -38 5 -3 3 -3 -4 -2 -7 2 -12 11 -10
21 2 9 -1 14 -6 11 -6 -3 -13 2 -16 11 -5 12 -9 14 -14 6 -4 -6 -21 -14 -37
-18 -25 -5 -23 -2 13 16 23 12 42 25 42 30 0 5 7 6 16 2 11 -4 15 -15 12 -39z
m77 27 c-3 -6 -11 -11 -17 -11 -6 0 -6 6 2 15 14 17 26 13 15 -4z m-149 -6
c-22 -17 -46 -20 -46 -6 0 8 21 16 55 19 6 1 1 -5 -9 -13z m244 11 c0 -3 -4
-8 -10 -11 -5 -3 -10 -1 -10 4 0 6 5 11 10 11 6 0 10 -2 10 -4z m90 -6 c0 -5
-5 -10 -11 -10 -5 0 -7 5 -4 10 3 6 8 10 11 10 2 0 4 -4 4 -10z m-2 -34 c17
18 28 18 36 -2 3 -8 2 -12 -4 -9 -5 3 -18 1 -29 -5 -17 -8 -22 -6 -31 12 -10
20 -9 21 2 7 11 -14 15 -14 26 -3z m1063 -13 c-12 -20 -14 -14 -5 12 4 9 9 14
11 11 3 -2 0 -13 -6 -23z m-1390 -9 c-18 -8 -36 -13 -39 -10 -6 7 37 25 58 25
8 -1 0 -7 -19 -15z m267 -9 c-3 -3 -9 2 -12 12 -6 14 -5 15 5 6 7 -7 10 -15 7
-18z m-84 -24 c-3 -3 -9 1 -13 8 -5 7 -14 10 -20 7 -6 -4 -11 -3 -11 3 0 17
25 19 37 3 7 -9 10 -18 7 -21z m-144 19 c0 -5 -3 -10 -7 -10 -5 0 -19 -3 -33
-6 l-25 -5 25 15 c30 18 40 20 40 6z m1620 -26 c0 -8 -4 -13 -9 -9 -5 3 -12 1
-16 -5 -4 -6 -11 -7 -17 -4 -7 5 -9 1 -5 -9 8 -21 -79 -141 -95 -131 -7 5 -9
2 -5 -9 4 -11 -14 -34 -58 -76 -83 -77 -138 -114 -238 -161 -125 -58 -202 -74
-347 -74 -152 0 -226 17 -365 84 -95 46 -201 123 -190 140 2 4 -4 15 -15 25
-11 10 -20 15 -20 10 0 -4 -7 -2 -15 5 -8 7 -13 16 -10 20 6 10 -25 51 -34 46
-4 -3 -8 2 -8 10 0 11 6 9 24 -8 13 -12 23 -16 23 -9 0 7 5 9 11 5 8 -5 8 -9
-1 -14 -9 -5 -5 -16 16 -39 15 -17 30 -29 32 -26 3 3 -3 14 -14 26 -17 19 -17
22 -2 33 19 14 8 43 -12 31 -9 -6 -11 -4 -6 4 5 7 14 10 22 7 17 -7 18 5 1 24
-6 8 -2 6 11 -4 26 -23 29 -11 4 18 l-17 21 23 -19 c12 -11 21 -25 18 -32 -8
-20 106 -115 120 -101 3 3 -11 15 -31 27 -20 12 -34 24 -31 27 2 3 25 -9 51
-27 64 -44 162 -87 243 -107 90 -22 258 -22 341 0 68 19 99 16 34 -3 -168 -48
-354 -31 -522 46 -41 19 -76 32 -79 29 -8 -8 137 -72 208 -91 48 -13 99 -18
195 -17 125 0 165 7 280 47 12 4 10 1 -5 -8 -56 -32 -153 -50 -280 -50 -142
-1 -211 14 -329 69 -91 43 -107 39 -20 -5 150 -76 360 -100 524 -61 98 24 183
60 166 71 -9 5 -8 9 4 13 9 4 13 3 10 -3 -10 -16 7 -12 43 10 19 12 31 16 27
10 -3 -5 -20 -17 -37 -26 -16 -8 -28 -18 -25 -21 3 -2 14 0 25 6 16 9 20 8 18
-5 -1 -9 -11 -21 -21 -26 -14 -8 -16 -8 -10 2 6 10 4 12 -8 7 -10 -4 -25 -10
-34 -13 -16 -5 -16 -4 -3 6 19 15 3 11 -95 -24 -52 -19 -63 -26 -41 -26 16 0
26 -3 23 -7 -18 -18 -343 -1 -432 23 -15 4 -14 1 5 -10 30 -18 26 -19 -20 -6
-25 7 -36 7 -42 -3 -6 -9 -8 -9 -8 1 0 7 7 15 16 19 13 5 13 7 2 14 -18 12
-41 11 -34 0 4 -5 -7 -4 -23 2 -16 6 -29 15 -28 20 1 5 -22 22 -51 39 -31 18
-52 25 -50 17 3 -14 -48 -23 -57 -9 -7 12 5 40 17 40 6 0 5 -6 -2 -15 -14 -17
-3 -20 20 -5 12 7 7 16 -25 44 -42 37 -55 43 -55 25 0 -5 -5 -7 -11 -3 -7 4
-10 1 -7 -7 3 -8 14 -14 25 -14 12 0 25 -4 30 -9 4 -5 2 -7 -7 -4 -12 4 -16
-1 -15 -18 0 -26 68 -89 85 -79 8 5 47 -11 80 -33 3 -2 -3 -9 -13 -17 -16 -11
-16 -13 -1 -19 9 -3 21 -3 26 1 7 4 8 1 3 -7 -6 -10 -4 -12 8 -7 20 8 49 -2
42 -13 -3 -5 5 -6 17 -3 14 3 18 1 11 -4 -12 -9 110 -16 287 -16 104 0 183 9
234 29 14 5 17 4 12 -4 -9 -16 -3 -15 40 3 19 8 42 11 52 8 9 -3 14 -2 9 2 -9
10 71 58 96 57 9 0 15 3 12 8 -3 5 0 12 6 16 8 4 8 8 0 13 -6 4 -2 12 12 20
20 13 21 13 8 -2 -7 -10 -9 -17 -3 -17 15 0 33 26 24 35 -4 5 -1 5 6 0 9 -5
30 9 63 41 60 59 66 83 7 29 l-43 -40 39 42 c21 23 43 41 49 40 5 -1 26 18 45
43 19 25 39 44 45 42 5 -2 7 3 4 11 -3 7 1 24 9 38 8 15 14 18 14 9 0 -12 3
-11 11 3 12 21 29 22 29 1z m-1410 -14 c6 -11 8 -20 6 -20 -3 0 -10 9 -16 20
-6 11 -8 20 -6 20 3 0 10 -9 16 -20z m1180 0 c-6 -11 -13 -20 -16 -20 -2 0 0
9 6 20 6 11 13 20 16 20 2 0 0 -9 -6 -20z m-1320 0 c0 -12 -28 -25 -36 -17 -9
9 6 27 22 27 8 0 14 -5 14 -10z m285 -47 c27 -32 39 -49 27 -39 -15 13 -22 15
-22 6 0 -17 -35 14 -62 55 -14 22 -11 20 12 -7 43 -51 60 -49 20 2 -47 60 -31
48 25 -17z m1055 37 c-6 -11 -13 -20 -16 -20 -2 0 0 9 6 20 6 11 13 20 16 20
2 0 0 -9 -6 -20z m229 -14 c-7 -14 -17 -26 -23 -26 -6 0 -21 -12 -34 -27 l-23
-28 16 34 c9 18 25 36 36 38 10 3 21 14 25 25 3 11 8 17 10 15 3 -2 -1 -16 -7
-31z m-1458 -8 c9 -16 8 -19 -2 -13 -9 6 -11 3 -6 -9 4 -10 3 -15 -4 -11 -5 4
-7 15 -4 26 6 17 3 19 -22 13 -27 -6 -27 -6 -8 9 22 17 30 15 46 -15z m1139 7
c-7 -8 -16 -13 -20 -10 -9 5 -42 -29 -35 -37 3 -2 -7 -15 -22 -29 -16 -14 -21
-16 -13 -5 14 18 13 18 -9 11 -17 -5 -22 -4 -18 6 2 8 10 13 17 11 7 -2 28 12
47 29 18 18 33 29 33 24 0 -5 5 -4 12 3 17 17 23 15 8 -3z m40 12 c0 -2 -10
-12 -22 -23 l-23 -19 19 23 c18 21 26 27 26 19z m136 -32 c-22 -34 -20 -42 6
-19 l22 19 -23 -32 c-12 -18 -27 -35 -34 -39 -9 -5 -8 -3 1 7 6 7 12 18 12 24
0 5 -16 -8 -36 -30 -30 -33 -32 -35 -14 -8 11 18 25 35 30 38 6 4 10 11 10 17
0 7 -5 7 -14 -1 -8 -6 -18 -10 -22 -9 -5 1 -33 -23 -63 -55 -63 -67 -57 -76 8
-14 25 23 35 30 22 15 -13 -15 -20 -32 -16 -39 5 -8 4 -10 -4 -5 -6 4 -18 0
-27 -8 -8 -9 -37 -30 -62 -47 l-47 -31 40 36 c22 19 36 35 31 36 -5 0 14 24
43 54 28 30 51 60 51 66 0 6 -24 -13 -52 -43 -41 -41 -44 -43 -13 -8 23 25 47
55 55 67 17 24 54 29 45 6 -4 -12 -3 -12 9 -3 11 9 15 9 18 -1 3 -8 9 -5 17
10 6 12 14 22 18 22 3 0 -2 -11 -11 -25z m-126 11 c0 -2 -8 -10 -17 -17 -16
-13 -17 -12 -4 4 13 16 21 21 21 13z m-1022 -91 c-3 -17 -4 -17 -18 0 -9 11
-10 16 -2 11 22 -13 13 7 -20 44 l-33 35 39 -36 c23 -22 37 -43 34 -54z m1024
58 c-11 -16 -35 -41 -53 -58 -20 -18 -13 -7 17 27 53 62 67 74 36 31z m-1335
-10 c2 -5 -9 -18 -24 -28 l-28 -18 25 29 25 28 -27 -17 c-16 -10 -28 -13 -28
-8 0 12 31 31 44 28 6 -2 11 -8 13 -14z m204 -10 c13 -16 12 -17 -3 -4 -10 7
-18 15 -18 17 0 8 8 3 21 -13z m1069 13 c0 -2 -8 -10 -17 -17 -16 -13 -17 -12
-4 4 13 16 21 21 21 13z m30 1 c0 -2 -15 -16 -32 -33 l-33 -29 29 33 c28 30
36 37 36 29z m-815 -37 c3 0 3 4 0 10 -4 7 2 7 19 0 17 -6 26 -6 29 3 2 7 5 8
10 0 3 -5 0 -18 -7 -29 -12 -16 -17 -17 -41 -6 -15 7 -30 11 -32 8 -8 -8 55
-36 82 -36 14 0 25 -4 25 -10 0 -15 -20 -12 -69 10 -24 11 -46 18 -49 15 -3
-2 19 -16 49 -29 30 -14 48 -25 40 -25 -15 -1 -141 66 -141 75 0 3 9 0 19 -6
32 -17 38 -11 11 11 -21 17 -22 19 -3 10 34 -17 40 -12 13 10 l-25 20 32 -15
c18 -9 35 -16 38 -16z m655 22 c0 -4 -6 -14 -12 -21 -11 -11 -10 -13 5 -8 9 4
17 4 17 2 0 -6 -80 -52 -112 -64 -48 -18 -30 -3 29 23 31 15 54 29 50 32 -3 3
-23 -4 -46 -15 -47 -24 -68 -27 -31 -5 l25 15 -27 -6 c-37 -7 -36 0 2 14 18 6
28 6 25 1 -9 -14 1 -12 36 6 35 18 33 31 -3 14 -22 -11 -22 -10 -4 4 21 17 46
21 46 8z m-412 -9 c-10 -2 -26 -2 -35 0 -10 3 -2 5 17 5 19 0 27 -2 18 -5z
m110 0 c-16 -2 -40 -2 -55 0 -16 2 -3 4 27 4 30 0 43 -2 28 -4z m75 0 c-7 -2
-21 -2 -30 0 -10 3 -4 5 12 5 17 0 24 -2 18 -5z m734 -6 c16 6 16 5 5 -10 -11
-13 -17 -14 -32 -5 -14 9 -22 9 -36 -3 -16 -13 -16 -12 -5 9 9 18 16 20 31 12
10 -5 27 -7 37 -3z m-1647 -17 c-33 -26 -52 -25 -21 0 13 11 28 20 35 20 6 0
0 -9 -14 -20z m108 -28 l23 -37 -25 27 c-15 17 -31 25 -40 22 -10 -4 -14 0
-13 14 2 29 29 17 55 -26z m632 28 c0 -5 -11 -10 -25 -10 -14 0 -25 5 -25 10
0 6 11 10 25 10 14 0 25 -4 25 -10z m173 3 c-7 -2 -21 -2 -30 0 -10 3 -4 5 12
5 17 0 24 -2 18 -5z m-333 -24 c0 -6 -4 -7 -10 -4 -5 3 -10 11 -10 16 0 6 5 7
10 4 6 -3 10 -11 10 -16z m258 14 c-15 -2 -42 -2 -60 0 -18 2 -6 4 27 4 33 0
48 -2 33 -4z m323 -6 c-14 -17 -98 -63 -131 -71 -14 -4 2 7 35 23 33 16 69 36
80 45 25 19 31 20 16 3z m44 3 c-3 -5 -16 -15 -28 -21 -19 -9 -19 -8 3 10 28
23 34 26 25 11z m316 -3 c-6 -8 -7 -18 -3 -22 4 -5 1 -5 -5 -1 -8 4 -23 -4
-38 -21 -13 -15 -25 -23 -25 -16 0 6 17 25 37 42 40 33 52 39 34 18z m-1476
-37 c-3 -5 -16 -15 -28 -21 -21 -11 -21 -10 2 15 14 14 19 26 13 26 -6 0 -14
-4 -17 -10 -3 -5 -14 -10 -23 -10 -12 0 -8 6 13 20 25 17 31 17 38 5 4 -9 5
-20 2 -25z m530 -56 c71 -25 95 -28 210 -29 97 0 144 4 187 18 32 9 65 20 75
23 10 3 7 -1 -7 -9 -14 -8 -61 -23 -104 -32 -175 -39 -426 10 -536 104 -14 12
2 6 35 -13 33 -19 96 -47 140 -62z m655 92 c0 -2 -8 -10 -17 -17 -16 -13 -17
-12 -4 4 13 16 21 21 21 13z m-497 -13 c-7 -2 -21 -2 -30 0 -10 3 -4 5 12 5
17 0 24 -2 18 -5z m105 0 c-15 -2 -42 -2 -60 0 -18 2 -6 4 27 4 33 0 48 -2 33
-4z m75 0 c-7 -2 -21 -2 -30 0 -10 3 -4 5 12 5 17 0 24 -2 18 -5z m717 -5 c0
-4 -6 -8 -14 -8 -8 0 -17 4 -20 8 -2 4 4 8 15 8 10 0 19 -4 19 -8z m-400 -14
c-8 -8 -23 -20 -34 -25 -13 -7 -9 -1 9 15 34 29 43 33 25 10z m-497 -1 c-7 -2
-21 -2 -30 0 -10 3 -4 5 12 5 17 0 24 -2 18 -5z m105 0 c-16 -2 -40 -2 -55 0
-16 2 -3 4 27 4 30 0 43 -2 28 -4z m75 0 c-7 -2 -21 -2 -30 0 -10 3 -4 5 12 5
17 0 24 -2 18 -5z m272 -3 c-3 -5 -16 -15 -28 -21 -19 -9 -19 -8 3 10 28 23
34 26 25 11z m390 0 c3 -5 13 -6 23 -3 14 5 15 3 5 -7 -10 -11 -15 -11 -28 0
-14 12 -20 10 -42 -16 l-25 -29 22 33 c22 33 34 39 45 22z m-615 -11 c-25 -5
-55 -11 -67 -14 -13 -3 -23 -1 -23 4 0 10 40 17 100 18 32 1 31 0 -10 -8z
m290 7 c0 -2 -8 -10 -17 -17 -16 -13 -17 -12 -4 4 13 16 21 21 21 13z m-1177
-20 c3 -8 -6 -24 -21 -37 l-27 -24 23 26 c13 15 19 30 14 33 -5 3 -15 -1 -22
-9 -7 -8 -18 -15 -24 -15 -11 0 33 39 45 40 4 0 9 -6 12 -14z m607 4 c0 -5
-24 -10 -52 -11 -73 -1 -35 -15 82 -31 83 -11 156 -6 270 17 14 3 5 -3 -20
-12 -64 -23 -264 -23 -344 1 -32 9 -55 20 -51 24 3 4 30 9 58 13 29 3 53 7 55
8 1 0 2 -3 2 -9z m60 -6 c0 -2 -12 -4 -27 -4 -21 0 -24 3 -14 9 13 8 41 5 41
-5z m366 1 c-11 -8 -25 -15 -30 -15 -6 1 0 7 14 15 32 19 40 18 16 0z m-268
-2 c-15 -2 -42 -2 -60 0 -18 2 -6 4 27 4 33 0 48 -2 33 -4z m159 1 c-3 -3 -12
-4 -19 -1 -8 3 -5 6 6 6 11 1 17 -2 13 -5z m263 2 c0 -2 -8 -10 -17 -17 -16
-13 -17 -12 -4 4 13 16 21 21 21 13z m-320 -16 c-14 -4 -36 -8 -50 -8 -22 0
-22 1 5 8 17 4 39 8 50 8 16 0 15 -2 -5 -8z m230 6 c0 -6 -66 -46 -76 -46 -5
0 9 11 31 25 43 26 45 27 45 21z m157 -18 c-3 -8 -6 -5 -6 6 -1 11 2 17 5 13
3 -3 4 -12 1 -19z m263 10 c0 -4 -6 -8 -14 -8 -8 0 -17 4 -20 8 -2 4 4 8 15 8
10 0 19 -4 19 -8z m-1410 -30 l23 -33 -26 24 c-14 12 -30 20 -36 16 -6 -3 -11
1 -11 9 0 26 25 18 50 -16z m553 25 c-7 -2 -21 -2 -30 0 -10 3 -4 5 12 5 17 0
24 -2 18 -5z m126 3 c-11 -9 -99 -15 -99 -6 0 6 23 10 52 10 28 0 49 -2 47 -4z
m555 -40 c-51 -44 -60 -35 -11 11 21 19 41 32 44 29 4 -3 -11 -21 -33 -40z
m-1324 19 c0 -2 -10 -10 -22 -16 -21 -11 -22 -11 -9 4 13 16 31 23 31 12z
m1379 -42 c-51 -53 -103 -102 -107 -98 -5 4 132 141 137 138 3 -2 -11 -20 -30
-40z m84 41 c9 -10 -4 -34 -18 -34 -17 0 -28 17 -20 30 7 11 28 13 38 4z
m-1432 -21 c12 -16 12 -17 -2 -5 -13 10 -19 9 -29 -3 -7 -8 -17 -15 -22 -15
-7 0 29 37 38 40 1 0 8 -8 15 -17z m1144 7 c-3 -5 -12 -10 -18 -10 -7 0 -6 4
3 10 19 12 23 12 15 0z m-195 -10 c-8 -5 -19 -10 -25 -10 -5 0 -3 5 5 10 8 5
20 10 25 10 6 0 3 -5 -5 -10z m-662 -25 c-8 -8 -48 8 -42 16 3 5 14 4 25 -2
12 -6 19 -12 17 -14z m-274 -6 c5 8 12 7 22 -3 19 -20 18 -32 -2 -15 -13 11
-17 10 -25 -4 -6 -9 -15 -17 -21 -17 -6 0 -5 7 3 17 12 15 12 16 -3 10 -10 -3
-20 -1 -24 5 -4 6 -3 8 4 4 6 -3 14 -1 18 5 5 8 9 8 14 -1 5 -9 9 -9 14 -1z
m1370 -18 c-13 -13 -27 -21 -31 -18 -3 4 -1 7 6 7 7 0 9 5 6 10 -3 6 -1 10 5
10 6 0 9 4 6 8 -2 4 4 8 14 8 16 0 16 -3 -6 -25z m-1228 -22 c9 -10 13 -19 7
-19 -5 0 -18 9 -27 19 -10 11 -24 17 -31 15 -7 -3 -15 2 -18 10 -5 12 -1 13
23 5 15 -6 36 -19 46 -30z m954 36 c0 -2 -10 -9 -22 -15 -22 -11 -22 -10 -4 4
21 17 26 19 26 11z m140 -10 c0 -3 -10 -10 -22 -15 -13 -5 -34 -17 -48 -26
-15 -9 -10 -3 10 15 30 28 60 40 60 26z m-1229 -29 c-9 -10 -8 -16 4 -26 13
-11 19 -9 37 6 14 13 19 14 16 5 -2 -8 -12 -19 -21 -25 -22 -14 -62 21 -46 41
6 7 14 13 16 13 3 0 0 -6 -6 -14z m323 -7 c-3 -5 -13 -9 -22 -8 -11 0 -12 2
-4 6 6 2 10 9 7 14 -4 5 1 6 9 3 9 -3 13 -10 10 -15z m626 11 c-8 -5 -24 -9
-35 -9 l-20 0 20 9 c11 5 27 9 35 9 13 1 13 0 0 -9z m40 -25 c-14 -8 -29 -14
-35 -14 -5 0 1 6 15 14 14 8 30 14 35 14 6 0 -1 -6 -15 -14z m300 6 c0 -5 -7
-12 -16 -15 -14 -5 -15 -4 -4 9 14 17 20 19 20 6z m-893 -21 c-1 -15 -6 -19
-22 -14 -33 10 -44 26 -12 19 17 -5 27 -3 27 4 0 6 2 11 4 11 3 0 4 -9 3 -20z
m-166 -21 c13 -7 19 -14 12 -16 -6 -2 -24 4 -39 14 -16 10 -29 17 -31 16 -7
-7 -23 -2 -23 6 0 11 45 0 81 -20z m296 25 c-3 -3 -12 -4 -19 -1 -8 3 -5 6 6
6 11 1 17 -2 13 -5z m773 -9 c-7 -9 -15 -13 -19 -10 -3 3 1 10 9 15 21 14 24
12 10 -5z m-717 -2 c-7 -2 -21 -2 -30 0 -10 3 -4 5 12 5 17 0 24 -2 18 -5z
m44 1 c-3 -3 -12 -4 -19 -1 -8 3 -5 6 6 6 11 1 17 -2 13 -5z m56 -1 c-7 -2
-19 -2 -25 0 -7 3 -2 5 12 5 14 0 19 -2 13 -5z m60 0 c-7 -2 -21 -2 -30 0 -10
3 -4 5 12 5 17 0 24 -2 18 -5z m397 0 c0 -4 -93 -43 -104 -43 -6 0 7 11 29 23
33 19 75 30 75 20z m70 -6 c0 -2 -15 -13 -32 -26 l-33 -22 28 25 c26 24 37 31
37 23z m60 -12 c0 -2 -9 -3 -19 -2 -11 0 -18 5 -15 9 4 6 34 0 34 -7z m-70
-30 c-7 -9 -15 -13 -19 -10 -3 3 1 10 9 15 21 14 24 12 10 -5z m-879 -11 c41
-21 30 -29 -14 -10 -20 8 -37 11 -39 6 -2 -4 -9 -2 -16 6 -11 12 -9 14 13 14
14 0 40 -7 56 -16z m715 -1 c-2 -2 -12 -5 -23 -7 -10 -2 -36 -11 -57 -20 -21
-9 -40 -16 -43 -16 -10 0 24 26 47 37 23 10 86 15 76 6z m194 2 c0 -2 -10 -10
-22 -16 -21 -11 -22 -11 -9 4 13 16 31 23 31 12z m-135 -25 c-3 -5 -1 -10 6
-10 7 0 4 -6 -7 -14 -10 -8 -20 -10 -22 -5 -2 5 -11 9 -20 9 -12 1 -10 5 8 15
30 17 44 19 35 5z m69 -11 c5 -4 -2 -13 -15 -20 -23 -12 -23 -11 -9 6 14 17
13 18 -4 12 -16 -6 -17 -5 -6 8 7 9 16 12 19 8 3 -4 10 -11 15 -14z m-719 -10
c12 -12 -7 -12 -39 1 -18 6 -26 6 -26 -1 0 -6 -5 -7 -10 -4 -6 4 -8 11 -4 16
7 11 63 2 79 -12z m-215 -8 c-13 -26 -13 -31 4 -31 8 0 18 9 21 20 6 20 25 19
25 -1 0 -6 -4 -8 -9 -5 -5 3 -11 -1 -15 -9 -6 -17 -32 -20 -41 -5 -6 9 11 50
21 50 2 0 0 -9 -6 -19z m665 11 c-33 -29 -197 -47 -335 -37 -107 8 -132 20
-50 24 28 1 50 -2 50 -6 0 -12 224 -3 260 10 34 12 46 15 65 16 11 1 15 -3 10
-7z m-570 -32 c3 -6 -1 -7 -9 -4 -18 7 -21 14 -7 14 6 0 13 -4 16 -10z m780 0
c-3 -5 -14 -10 -23 -10 -15 0 -15 2 -2 10 20 13 33 13 25 0z m-735 -16 c0 -2
-7 -4 -15 -4 -8 0 -15 4 -15 10 0 5 7 7 15 4 8 -4 15 -8 15 -10z m-79 -17
c-10 -9 -11 -8 -5 6 3 10 9 15 12 12 3 -3 0 -11 -7 -18z m769 7 c0 -8 -71 -36
-77 -30 -3 3 10 12 28 20 38 16 49 19 49 10z m-703 -10 c-3 -3 -12 -4 -19 -1
-8 3 -5 6 6 6 11 1 17 -2 13 -5z m498 -4 c-3 -5 -15 -10 -26 -10 -11 0 -17 5
-14 10 3 6 15 10 26 10 11 0 17 -4 14 -10z m-65 -10 c0 -5 -10 -10 -22 -10
-19 0 -20 2 -8 10 19 13 30 13 30 0z m-430 -10 c13 -9 13 -10 0 -10 -8 0 -22
5 -30 10 -13 9 -13 10 0 10 8 0 22 -5 30 -10z m223 3 c-7 -2 -19 -2 -25 0 -7
3 -2 5 12 5 14 0 19 -2 13 -5z m64 -5 c-21 -7 -32 -7 -40 1 -8 8 0 11 29 10
39 -1 39 -1 11 -11z m76 5 c-7 -2 -19 -2 -25 0 -7 3 -2 5 12 5 14 0 19 -2 13
-5z m-252 -30 c-12 -20 -14 -14 -5 12 4 9 9 14 11 11 3 -2 0 -13 -6 -23z m372
20 c-7 -2 -19 -2 -25 0 -7 3 -2 5 12 5 14 0 19 -2 13 -5z m-423 -13 c12 -8 11
-10 -7 -10 -13 0 -23 5 -23 10 0 13 11 13 30 0z m170 6 c0 -9 -30 -14 -35 -6
-4 6 3 10 14 10 12 0 21 -2 21 -4z m-13 -32 c-3 -3 -12 -4 -19 -1 -8 3 -5 6 6
6 11 1 17 -2 13 -5z m206 -1 c-7 -2 -19 -2 -25 0 -7 3 -2 5 12 5 14 0 19 -2
13 -5z"/>
<path d="M1223 3363 c32 -2 81 -2 110 0 29 2 3 3 -58 3 -60 0 -84 -1 -52 -3z"/>
<path d="M1118 3353 c6 -2 18 -2 25 0 6 3 1 5 -13 5 -14 0 -19 -2 -12 -5z"/>
<path d="M1398 3353 c6 -2 18 -2 25 0 6 3 1 5 -13 5 -14 0 -19 -2 -12 -5z"/>
<path d="M1078 3343 c7 -3 16 -2 19 1 4 3 -2 6 -13 5 -11 0 -14 -3 -6 -6z"/>
<path d="M1326 3311 l-6 -38 -75 -7 c-116 -11 -331 -74 -312 -92 3 -3 24 4 47
16 117 60 318 78 462 41 91 -23 207 -79 189 -91 -9 -5 -3 -14 21 -28 18 -11
44 -32 57 -46 14 -14 29 -26 35 -26 6 1 -9 19 -33 40 -24 22 -38 40 -32 40 7
0 9 5 6 10 -10 16 11 12 25 -5 10 -12 17 -9 45 22 20 22 35 31 39 24 4 -6 1
-11 -6 -11 -10 0 -10 -2 1 -9 9 -6 10 -11 2 -15 -8 -5 -6 -12 5 -23 11 -12 18
-13 27 -4 8 8 7 11 -6 11 -17 0 -22 11 -10 24 4 3 25 -11 47 -31 23 -21 16
-12 -14 20 -30 32 -86 79 -125 105 -69 46 -222 111 -260 111 -11 0 12 -10 50
-23 39 -12 91 -34 117 -47 43 -22 45 -26 33 -43 -14 -18 -15 -18 -58 0 -35 14
-43 22 -39 39 2 15 -1 22 -12 22 -11 0 -15 -7 -11 -21 3 -12 2 -15 -1 -8 -3 6
-10 9 -16 6 -6 -4 -5 2 1 15 14 26 -3 29 -19 4 -10 -16 -11 -15 -7 5 3 12 1
22 -4 22 -5 0 -9 -6 -9 -14 0 -8 -4 -17 -9 -20 -4 -3 -6 7 -4 22 3 26 3 26 -8
4 -11 -20 -18 -22 -63 -17 l-51 5 50 -15 c33 -9 38 -13 16 -10 -18 3 -42 5
-52 5 -29 0 -25 40 4 41 21 0 21 1 2 8 l-20 8 20 5 c16 5 15 6 -6 7 -23 1 -27
-4 -33 -38z m132 -61 c97 -27 256 -109 214 -110 -7 0 -10 -4 -7 -10 3 -5 2
-10 -4 -10 -15 0 -23 18 -9 22 32 11 -153 91 -262 113 -40 8 -54 13 -35 14 17
1 63 -8 103 -19z m137 -30 c44 -21 94 -51 110 -65 l30 -27 -30 20 c-44 28
-152 82 -210 104 -43 16 -45 18 -15 13 19 -3 71 -23 115 -45z m113 13 c55 -34
63 -44 47 -60 -28 -27 -99 17 -89 55 8 26 8 26 42 5z"/>
<path d="M1676 3223 c-6 -14 -5 -15 5 -6 7 7 10 15 7 18 -3 3 -9 -2 -12 -12z"/>
<path d="M705 3320 c3 -5 8 -10 11 -10 2 0 4 5 4 10 0 6 -5 10 -11 10 -5 0 -7
-4 -4 -10z"/>
<path d="M668 3290 c-7 -11 -21 -20 -31 -20 -10 0 -15 -5 -12 -11 4 -6 10 -8
13 -5 3 3 14 -2 24 -11 18 -16 20 -15 43 8 l24 24 -24 18 c-24 17 -25 17 -37
-3z m37 -21 c0 -7 -8 -15 -17 -17 -18 -3 -25 18 -11 32 10 10 28 1 28 -15z"/>
<path d="M915 3261 c-7 -12 12 -24 25 -16 11 7 4 25 -10 25 -5 0 -11 -4 -15
-9z"/>
<path d="M607 3244 c-3 -4 4 -15 16 -25 25 -21 17 -25 -13 -7 -17 11 -23 9
-42 -10 l-22 -22 21 0 c12 0 25 5 29 12 5 7 3 8 -6 3 -9 -5 -11 -4 -6 4 6 9
11 9 22 0 11 -9 11 -15 3 -25 -7 -9 -8 -14 -1 -14 5 0 17 12 27 26 16 25 16
27 -2 45 -11 11 -22 17 -26 13z"/>
<path d="M517 3145 c-18 -25 -18 -25 8 -25 14 0 25 -5 25 -12 0 -7 10 -3 22
10 22 21 22 22 3 37 -27 20 -37 18 -58 -10z m57 -16 c-3 -5 -14 -4 -26 2 -16
9 -18 13 -7 20 15 9 42 -8 33 -22z"/>
<path d="M1285 3139 c136 -9 237 -42 322 -105 36 -27 52 -31 33 -9 -10 12 -10
15 1 15 9 1 5 8 -10 20 -25 22 -46 27 -35 9 4 -7 3 -10 -2 -7 -146 70 -215 88
-334 86 l-85 -1 110 -8z m340 -89 c3 -5 2 -10 -4 -10 -5 0 -13 5 -16 10 -3 6
-2 10 4 10 5 0 13 -4 16 -10z"/>
<path d="M482 3098 c-18 -18 -15 -28 8 -28 12 0 20 -7 20 -16 0 -10 -5 -14
-15 -10 -20 8 -42 14 -32 9 4 -3 -3 -13 -15 -22 l-21 -18 26 -7 c15 -3 27 -11
27 -16 0 -6 -9 -6 -26 0 -37 15 -43 11 -11 -6 15 -8 32 -12 38 -8 6 3 13 -3
16 -15 3 -12 9 -21 13 -21 13 0 60 60 60 76 0 24 -17 15 -30 -16 -15 -36 -45
-37 -44 -3 0 12 -3 20 -8 17 -4 -3 -15 -1 -24 4 -15 8 -15 10 1 16 9 3 21 3
27 0 11 -7 62 46 53 55 -4 3 -10 -1 -15 -9 -8 -13 -12 -12 -27 3 -17 17 -17
18 1 11 13 -5 17 -4 12 4 -9 15 -19 15 -34 0z"/>
<path d="M1596 3095 c10 -8 24 -14 29 -14 6 0 1 6 -9 14 -11 8 -24 15 -30 15
-5 0 -1 -7 10 -15z"/>
<path d="M1920 3031 c0 -5 5 -13 10 -16 6 -3 10 -2 10 4 0 5 -4 13 -10 16 -5
3 -10 2 -10 -4z"/>
<path d="M406 2964 c-9 -24 -7 -29 6 -16 7 7 17 8 30 1 10 -5 18 -6 18 -1 0 5
-11 14 -24 20 -20 9 -25 8 -30 -4z"/>
<path d="M490 2900 c-14 -34 -56 -44 -48 -12 3 10 0 19 -6 20 -6 0 -21 4 -33
7 -17 6 -23 3 -23 -8 0 -11 7 -14 25 -11 27 5 31 -6 15 -36 -7 -12 -17 -17
-28 -13 -14 5 -14 3 2 -9 18 -15 18 -15 -3 -21 -11 -3 -21 -1 -21 4 0 5 -5 9
-12 9 -8 0 -7 -6 4 -16 20 -21 55 -4 64 31 6 25 34 25 34 -1 0 -25 26 -3 41
34 7 20 15 40 17 45 2 4 -1 7 -6 7 -5 0 -15 -13 -22 -30z"/>
<path d="M457 2813 c-2 -5 -7 -20 -11 -35 -4 -19 -11 -26 -21 -22 -19 8 -19
-3 -1 -22 19 -18 22 -18 31 4 14 34 23 82 15 82 -5 0 -11 -3 -13 -7z"/>
<path d="M340 2792 c0 -5 11 -14 24 -20 19 -9 27 -8 37 4 10 12 9 13 -4 8 -8
-3 -25 -1 -36 6 -12 6 -21 7 -21 2z"/>
<path d="M377 2603 c-4 -3 -7 -16 -6 -27 0 -19 1 -19 10 3 10 24 8 36 -4 24z"/>
<path d="M1735 3390 c-3 -5 1 -13 10 -16 22 -9 29 1 11 15 -10 8 -16 9 -21 1z"/>
<path d="M1950 3221 c0 -5 5 -13 10 -16 6 -3 10 -2 10 4 0 5 -4 13 -10 16 -5
3 -10 2 -10 -4z"/>
<path d="M1925 3210 c-3 -5 -1 -10 4 -10 6 0 11 5 11 10 0 6 -2 10 -4 10 -3 0
-8 -4 -11 -10z"/>
<path d="M524 2827 c3 -10 6 -21 6 -23 0 -2 7 -4 16 -4 9 0 14 5 12 11 -2 6
-7 10 -12 9 -5 -1 -13 4 -18 12 -7 9 -8 8 -4 -5z"/>
<path d="M779 3096 c-30 -25 -56 -43 -60 -40 -3 2 -15 -6 -25 -19 l-19 -22 21
18 c12 10 24 14 25 9 2 -6 31 14 63 44 72 65 68 71 -5 10z"/>
<path d="M1142 3072 c-13 -4 37 -7 111 -7 74 0 130 3 123 7 -13 9 -202 9 -234
0z"/>
<path d="M1210 3045 c0 -10 -10 -15 -30 -15 -20 0 -30 -5 -30 -15 0 -12 15
-15 83 -13 l82 2 -80 5 -80 6 70 8 c92 11 101 15 40 18 l-50 2 55 7 55 7 -57
1 c-46 2 -58 -1 -58 -13z"/>
<path d="M740 3035 c-7 -8 -16 -13 -20 -10 -4 3 -22 -11 -39 -30 -32 -37 -39
-51 -19 -39 8 5 9 2 5 -10 -5 -11 -3 -15 4 -10 14 8 14 8 -33 -82 -20 -38 -44
-97 -54 -129 l-17 -59 38 -33 c54 -46 69 -41 19 6 l-41 39 22 69 c12 37 29 82
39 98 18 32 17 26 -20 -73 -13 -35 -24 -71 -23 -80 0 -9 9 8 18 38 10 30 31
80 47 110 38 72 39 74 25 66 -17 -11 -13 10 4 24 13 11 14 10 9 -5 -6 -14 -4
-16 6 -10 8 5 5 -7 -8 -29 -25 -42 -29 -61 -7 -32 22 29 18 15 -15 -56 -16
-34 -30 -70 -30 -78 1 -8 12 12 26 45 14 33 31 65 36 70 6 6 6 1 -1 -12 -14
-28 -14 -54 1 -29 14 24 20 88 7 80 -34 -21 50 93 94 128 12 10 17 18 11 18
-5 0 -25 -16 -44 -35 -18 -19 -36 -33 -38 -30 -3 3 -11 0 -19 -6 -30 -26 -10
10 27 46 28 28 36 41 27 47 -17 11 -23 10 -37 -7z m30 1 c0 -2 -20 -26 -45
-52 -25 -27 -42 -40 -39 -30 6 14 4 17 -5 11 -18 -10 2 27 24 45 13 11 15 10
9 -6 -5 -15 0 -13 22 9 28 27 34 31 34 23z m-38 -108 c-7 -7 -12 -8 -12 -2 0
14 12 26 19 19 2 -3 -1 -11 -7 -17z m-60 -50 c-7 -7 -12 -8 -12 -2 0 14 12 26
19 19 2 -3 -1 -11 -7 -17z"/>
<path d="M1072 3003 l1 -48 7 45 7 45 3 -45 3 -45 7 45 6 45 5 -45 6 -45 3 45
3 45 7 -45 7 -45 1 42 c2 37 5 42 30 46 15 2 -1 5 -35 6 l-63 1 2 -47z"/>
<path d="M1370 3030 c0 -14 -6 -20 -22 -19 -21 0 -22 1 -4 8 19 7 19 8 -2 13
-18 5 -22 2 -22 -18 0 -23 -2 -24 -85 -24 -69 0 -85 -3 -85 -15 0 -13 21 -15
129 -15 l130 0 4 38 4 37 3 -40 3 -40 7 45 7 45 3 -45 3 -45 7 45 7 45 2 -45
1 -45 59 0 c33 0 57 3 54 8 -2 4 -28 21 -56 37 -29 16 -48 30 -43 30 12 0 95
-48 119 -68 9 -8 20 -13 22 -10 7 7 -93 74 -130 88 -14 5 -46 10 -71 10 -37 0
-44 -3 -44 -20z m-7 -37 c-7 -2 -19 -2 -25 0 -7 3 -2 5 12 5 14 0 19 -2 13 -5z
m-160 -20 c-7 -2 -21 -2 -30 0 -10 3 -4 5 12 5 17 0 24 -2 18 -5z m95 0 c-16
-2 -40 -2 -55 0 -16 2 -3 4 27 4 30 0 43 -2 28 -4z m65 0 c-7 -2 -19 -2 -25 0
-7 3 -2 5 12 5 14 0 19 -2 13 -5z"/>
<path d="M802 2947 c-25 -27 -30 -46 -6 -27 15 13 38 50 31 50 -2 0 -13 -10
-25 -23z"/>
<path d="M2070 2552 c14 -2 30 -8 35 -12 6 -5 42 -11 80 -14 39 -3 62 -3 52 0
-18 6 -18 6 0 19 15 11 1 13 -87 11 -58 0 -94 -3 -80 -4z m140 -14 c0 -4 -9
-8 -21 -8 -11 0 -18 4 -15 8 3 5 12 9 21 9 8 0 15 -4 15 -9z"/>
<path d="M1888 2523 c6 -2 18 -2 25 0 6 3 1 5 -13 5 -14 0 -19 -2 -12 -5z"/>
<path d="M2000 2500 c0 -5 5 -10 10 -10 6 0 10 5 10 10 0 6 -4 10 -10 10 -5 0
-10 -4 -10 -10z"/>
<path d="M1605 2660 c3 -5 8 -10 11 -10 2 0 4 5 4 10 0 6 -5 10 -11 10 -5 0
-7 -4 -4 -10z"/>
<path d="M1919 2123 c-13 -16 -12 -17 4 -4 9 7 17 15 17 17 0 8 -8 3 -21 -13z"/>
<path d="M710 2125 c0 -15 127 -112 135 -103 3 2 -14 18 -38 36 -23 17 -54 40
-69 52 -16 12 -28 19 -28 15z"/>
<path d="M1845 2038 l-50 -53 53 50 c48 46 57 55 49 55 -1 0 -25 -24 -52 -52z"/>
<path d="M725 1991 c32 -38 122 -92 140 -85 14 6 11 10 -12 25 -15 11 -34 17
-42 14 -7 -3 -34 11 -60 32 -25 20 -37 27 -26 14z m119 -66 c11 -8 16 -15 10
-15 -5 0 -18 7 -28 15 -11 8 -16 15 -10 15 5 0 18 -7 28 -15z"/>
<path d="M1755 1964 c-18 -16 -22 -22 -9 -15 18 9 53 42 43 41 -2 -1 -17 -12
-34 -26z"/>
<path d="M1684 1914 c-18 -14 -18 -15 4 -4 12 6 22 13 22 15 0 8 -5 6 -26 -11z"/>
<path d="M1388 1893 c6 -2 18 -2 25 0 6 3 1 5 -13 5 -14 0 -19 -2 -12 -5z"/>
<path d="M1450 1840 c-15 -5 -18 -8 -8 -9 9 -1 25 -4 35 -7 14 -5 15 -4 4 4
-11 8 -10 11 5 15 10 2 12 5 4 5 -8 0 -26 -4 -40 -8z"/>
<path d="M1068 1833 c7 -3 16 -2 19 1 4 3 -2 6 -13 5 -11 0 -14 -3 -6 -6z"/>
<path d="M1113 1823 c9 -2 23 -2 30 0 6 3 -1 5 -18 5 -16 0 -22 -2 -12 -5z"/>
<path d="M1265 1820 l-100 -6 90 -1 c50 -1 108 2 130 6 47 10 32 10 -120 1z"/>
<path d="M1378 1803 c7 -3 16 -2 19 1 4 3 -2 6 -13 5 -11 0 -14 -3 -6 -6z"/>
<path d="M1228 1793 c17 -2 47 -2 65 0 17 2 3 4 -33 4 -36 0 -50 -2 -32 -4z"/>
<path d="M1845 2200 c-3 -5 -1 -10 4 -10 6 0 11 5 11 10 0 6 -2 10 -4 10 -3 0
-8 -4 -11 -10z"/>
<path d="M970 2130 c8 -5 20 -10 25 -10 6 0 3 5 -5 10 -8 5 -19 10 -25 10 -5
0 -3 -5 5 -10z"/>
<path d="M1995 2000 c-3 -5 -2 -10 4 -10 5 0 13 5 16 10 3 6 2 10 -4 10 -5 0
-13 -4 -16 -10z"/>
<path d="M1080 3610 c-8 -5 -12 -12 -9 -15 4 -3 12 1 19 10 14 17 11 19 -10 5z"/>
<path d="M1035 3599 c-4 -6 -5 -13 -2 -16 7 -7 27 6 27 18 0 12 -17 12 -25 -2z"/>
<path d="M1000 3584 c0 -8 5 -12 10 -9 6 3 10 10 10 16 0 5 -4 9 -10 9 -5 0
-10 -7 -10 -16z"/>
<path d="M970 3580 c-8 -5 -11 -12 -7 -16 4 -4 13 -2 19 4 15 15 7 24 -12 12z"/>
<path d="M1341 3580 c10 -7 49 -2 49 5 0 2 -14 3 -31 3 -17 -1 -25 -4 -18 -8z"/>
<path d="M930 3566 c0 -9 5 -16 10 -16 6 0 10 4 10 9 0 6 -4 13 -10 16 -5 3
-10 -1 -10 -9z"/>
<path d="M1080 3570 c-8 -5 -12 -12 -9 -15 4 -3 12 1 19 10 14 17 11 19 -10 5z"/>
<path d="M897 3563 c-12 -12 -7 -32 6 -27 8 3 14 11 14 19 0 16 -9 19 -20 8z"/>
<path d="M1960 3311 c0 -6 4 -13 10 -16 6 -3 7 1 4 9 -7 18 -14 21 -14 7z"/>
<path d="M2483 2778 c-43 -31 -63 -77 -63 -146 0 -106 58 -172 152 -172 115 0
173 82 153 217 -5 38 -15 56 -46 85 -37 36 -44 38 -102 38 -49 0 -69 -5 -94
-22z m152 -53 c22 -21 25 -33 25 -92 -1 -91 -20 -118 -85 -118 -37 0 -51 5
-66 23 -39 49 -36 146 6 188 33 33 87 33 120 -1z"/>
<path d="M2810 2630 l0 -170 30 0 29 0 3 121 3 120 74 -120 c71 -116 75 -121
107 -121 l34 0 0 170 0 170 -30 0 -30 0 0 -110 c0 -60 -3 -110 -7 -110 -5 0
-39 50 -76 110 -65 105 -70 110 -103 110 l-34 0 0 -170z"/>
<path d="M3180 2630 l0 -170 30 0 30 0 0 116 c0 72 4 114 10 112 5 -1 40 -52
78 -113 61 -100 71 -110 100 -113 l32 -3 0 170 0 171 -30 0 -29 0 -3 -112 -3
-113 -70 113 c-69 110 -71 112 -107 112 l-38 0 0 -170z"/>
<path d="M3571 2774 c-24 -20 -31 -34 -31 -63 0 -56 22 -78 100 -101 77 -23
95 -46 64 -81 -23 -26 -64 -24 -107 5 -35 24 -36 24 -53 5 -14 -16 -15 -21 -4
-34 24 -29 68 -45 125 -45 49 0 60 4 86 29 56 56 29 150 -48 166 -89 20 -121
47 -93 80 16 19 67 19 102 1 27 -14 33 -12 52 21 11 20 -48 43 -108 43 -44 0
-60 -5 -85 -26z"/>
<path d="M3903 2780 c-47 -28 -67 -73 -68 -150 0 -78 24 -126 75 -152 66 -34
158 -17 194 34 22 31 20 43 -9 56 -16 8 -25 8 -25 1 0 -5 -11 -21 -25 -34 -34
-35 -78 -33 -116 4 -25 26 -29 37 -29 86 0 87 27 124 91 125 25 0 42 -7 58
-24 22 -23 25 -24 47 -9 19 12 22 19 14 34 -27 49 -146 66 -207 29z"/>
<path d="M4206 2639 c-31 -88 -56 -165 -56 -170 0 -5 13 -9 30 -9 26 0 31 5
41 40 l12 41 70 -3 69 -3 12 -35 c9 -30 16 -35 45 -38 25 -3 32 0 29 10 -3 7
-29 84 -58 171 l-54 157 -42 0 -42 0 -56 -161z m123 29 c12 -34 21 -66 21 -70
0 -4 -20 -8 -45 -8 -56 0 -56 1 -10 128 8 21 13 14 34 -50z"/>
<path d="M4520 2631 l0 -171 30 0 29 0 3 121 3 120 74 -120 c71 -116 76 -121
108 -121 l33 0 0 170 0 170 -30 0 -30 0 0 -110 c0 -60 -3 -110 -7 -110 -5 0
-38 49 -74 108 -63 102 -68 107 -103 110 l-36 3 0 -170z"/>
</g>
</svg>
